ALSA lib pcm.c:2266:(snd_pcm_open_noupdate) Unknown PCM cards.pcm.rear
ALSA lib pcm.c:2266:(snd_pcm_open_noupdate) Unknown PCM cards.pcm.center_lfe
ALSA lib pcm.c:2266:(snd_pcm_open_noupdate) Unknown PCM cards.pcm.side
ALSA lib pcm_route.c:867:(find_matching_chmap) Found no matching channel map
ALSA lib pcm_route.c:867:(find_matching_chmap) Found no matching channel map
ALSA lib pcm_route.c:867:(find_matching_chmap) Found no matching channel map
ALSA lib pcm_route.c:867:(find_matching_chmap) Found no matching channel map
Cannot connect to server socket err = No such file or directory
Cannot connect to server request channel
jack server is not running or cannot be started
JackShmReadWritePtr::~JackShmReadWritePtr - Init not done for 4294967295, skipping unlock
JackShmReadWritePtr::~JackShmReadWritePtr - Init not done for 4294967295, skipping unlock
ffmpeg version 2.8.11-0ubuntu0.16.04.1 Copyright (c) 2000-2017 the FFmpeg developers
  built with gcc 5.4.0 (Ubuntu 5.4.0-6ubuntu1~16.04.4) 20160609
  configuration: --prefix=/usr --extra-version=0ubuntu0.16.04.1 --build-suffix=-ffmpeg --toolchain=hardened --libdir=/usr/lib/x86_64-linux-gnu --incdir=/usr/include/x86_64-linux-gnu --cc=cc --cxx=g++ --enable-gpl --enable-shared --disable-stripping --disable-decoder=libopenjpeg --disable-decoder=libschroedinger --enable-avresample --enable-avisynth --enable-gnutls --enable-ladspa --enable-libass --enable-libbluray --enable-libbs2b --enable-libcaca --enable-libcdio --enable-libflite --enable-libfontconfig --enable-libfreetype --enable-libfribidi --enable-libgme --enable-libgsm --enable-libmodplug --enable-libmp3lame --enable-libopenjpeg --enable-libopus --enable-libpulse --enable-librtmp --enable-libschroedinger --enable-libshine --enable-libsnappy --enable-libsoxr --enable-libspeex --enable-libssh --enable-libtheora --enable-libtwolame --enable-libvorbis --enable-libvpx --enable-libwavpack --enable-libwebp --enable-libx265 --enable-libxvid --enable-libzvbi --enable-openal --enable-opengl --enable-x11grab --enable-libdc1394 --enable-libiec61883 --enable-libzmq --enable-frei0r --enable-libx264 --enable-libopencv
  libavutil      54. 31.100 / 54. 31.100
  libavcodec     56. 60.100 / 56. 60.100
  libavformat    56. 40.101 / 56. 40.101
  libavdevice    56.  4.100 / 56.  4.100
  libavfilter     5. 40.101 /  5. 40.101
  libavresample   2.  1.  0 /  2.  1.  0
  libswscale      3.  1.101 /  3.  1.101
  libswresample   1.  2.101 /  1.  2.101
  libpostproc    53.  3.100 / 53.  3.100
[mp3 @ 0x1b354c0] Skipping 0 bytes of junk at 0.
[mp3 @ 0x1b354c0] Estimating duration from bitrate, this may be inaccurate
Input #0, mp3, from 'syn_auido.wav':
  Duration: 00:00:02.41, start: 0.000000, bitrate: 16 kb/s
    Stream #0:0: Audio: mp3, 16000 Hz, mono, s16p, 16 kb/s
Output #0, wav, to 'temp.wav':
  Metadata:
    ISFT            : Lavf56.40.101
    Stream #0:0: Audio: pcm_s16le ([1][0][0][0] / 0x0001), 16000 Hz, mono, s16, 256 kb/s
    Metadata:
      encoder         : Lavc56.60.100 pcm_s16le
Stream mapping:
  Stream #0:0 -> #0:0 (mp3 (native) -> pcm_s16le (native))
Press [q] to stop, [?] for help
size=      75kB time=00:00:02.41 bitrate= 256.3kbits/s    
video:0kB audio:75kB subtitle:0kB other streams:0kB global headers:0kB muxing overhead: 0.101057%
ALSA lib pcm_dsnoop.c:606:(snd_pcm_dsnoop_open) unable to open slave
ALSA lib pcm.c:2266:(snd_pcm_open_noupdate) Unknown PCM cards.pcm.rear
ALSA lib pcm.c:2266:(snd_pcm_open_noupdate) Unknown PCM cards.pcm.center_lfe
ALSA lib pcm.c:2266:(snd_pcm_open_noupdate) Unknown PCM cards.pcm.side
ALSA lib pcm_route.c:867:(find_matching_chmap) Found no matching channel map
ALSA lib pcm_route.c:867:(find_matching_chmap) Found no matching channel map
ALSA lib pcm_route.c:867:(find_matching_chmap) Found no matching channel map
Cannot connect to server socket err = No such file or directory
Cannot connect to server request channel
jack server is not running or cannot be started
JackShmReadWritePtr::~JackShmReadWritePtr - Init not done for 4294967295, skipping unlock
JackShmReadWritePtr::~JackShmReadWritePtr - Init not done for 4294967295, skipping unlock
ALSA lib pcm_dsnoop.c:606:(snd_pcm_dsnoop_open) unable to open slave
ALSA lib pcm_dmix.c:1029:(snd_pcm_dmix_open) unable to open slave
ALSA lib pcm.c:2266:(snd_pcm_open_noupdate) Unknown PCM cards.pcm.rear
ALSA lib pcm.c:2266:(snd_pcm_open_noupdate) Unknown PCM cards.pcm.center_lfe
ALSA lib pcm.c:2266:(snd_pcm_open_noupdate) Unknown PCM cards.pcm.side
ALSA lib pcm_dmix.c:1029:(snd_pcm_dmix_open) unable to open slave
Cannot connect to server socket err = No such file or directory
Cannot connect to server request channel
jack server is not running or cannot be started
JackShmReadWritePtr::~JackShmReadWritePtr - Init not done for 4294967295, skipping unlock
JackShmReadWritePtr::~JackShmReadWritePtr - Init not done for 4294967295, skipping unlock
ffmpeg version 2.8.11-0ubuntu0.16.04.1 Copyright (c) 2000-2017 the FFmpeg developers
  built with gcc 5.4.0 (Ubuntu 5.4.0-6ubuntu1~16.04.4) 20160609
  configuration: --prefix=/usr --extra-version=0ubuntu0.16.04.1 --build-suffix=-ffmpeg --toolchain=hardened --libdir=/usr/lib/x86_64-linux-gnu --incdir=/usr/include/x86_64-linux-gnu --cc=cc --cxx=g++ --enable-gpl --enable-shared --disable-stripping --disable-decoder=libopenjpeg --disable-decoder=libschroedinger --enable-avresample --enable-avisynth --enable-gnutls --enable-ladspa --enable-libass --enable-libbluray --enable-libbs2b --enable-libcaca --enable-libcdio --enable-libflite --enable-libfontconfig --enable-libfreetype --enable-libfribidi --enable-libgme --enable-libgsm --enable-libmodplug --enable-libmp3lame --enable-libopenjpeg --enable-libopus --enable-libpulse --enable-librtmp --enable-libschroedinger --enable-libshine --enable-libsnappy --enable-libsoxr --enable-libspeex --enable-libssh --enable-libtheora --enable-libtwolame --enable-libvorbis --enable-libvpx --enable-libwavpack --enable-libwebp --enable-libx265 --enable-libxvid --enable-libzvbi --enable-openal --enable-opengl --enable-x11grab --enable-libdc1394 --enable-libiec61883 --enable-libzmq --enable-frei0r --enable-libx264 --enable-libopencv
  libavutil      54. 31.100 / 54. 31.100
  libavcodec     56. 60.100 / 56. 60.100
  libavformat    56. 40.101 / 56. 40.101
  libavdevice    56.  4.100 / 56.  4.100
  libavfilter     5. 40.101 /  5. 40.101
  libavresample   2.  1.  0 /  2.  1.  0
  libswscale      3.  1.101 /  3.  1.101
  libswresample   1.  2.101 /  1.  2.101
  libpostproc    53.  3.100 / 53.  3.100
[mp3 @ 0x12c24c0] Skipping 0 bytes of junk at 0.
[mp3 @ 0x12c24c0] Estimating duration from bitrate, this may be inaccurate
Input #0, mp3, from 'syn_auido.wav':
  Duration: 00:00:01.91, start: 0.000000, bitrate: 16 kb/s
    Stream #0:0: Audio: mp3, 16000 Hz, mono, s16p, 16 kb/s
Output #0, wav, to 'temp.wav':
  Metadata:
    ISFT            : Lavf56.40.101
    Stream #0:0: Audio: pcm_s16le ([1][0][0][0] / 0x0001), 16000 Hz, mono, s16, 256 kb/s
    Metadata:
      encoder         : Lavc56.60.100 pcm_s16le
Stream mapping:
  Stream #0:0 -> #0:0 (mp3 (native) -> pcm_s16le (native))
Press [q] to stop, [?] for help
size=      60kB time=00:00:01.90 bitrate= 256.3kbits/s    
video:0kB audio:60kB subtitle:0kB other streams:0kB global headers:0kB muxing overhead: 0.127752%
ALSA lib pcm_dsnoop.c:606:(snd_pcm_dsnoop_open) unable to open slave
ALSA lib pcm.c:2266:(snd_pcm_open_noupdate) Unknown PCM cards.pcm.rear
ALSA lib pcm.c:2266:(snd_pcm_open_noupdate) Unknown PCM cards.pcm.center_lfe
ALSA lib pcm.c:2266:(snd_pcm_open_noupdate) Unknown PCM cards.pcm.side
ALSA lib pcm_route.c:867:(find_matching_chmap) Found no matching channel map
ALSA lib pcm_route.c:867:(find_matching_chmap) Found no matching channel map
ALSA lib pcm_route.c:867:(find_matching_chmap) Found no matching channel map
Cannot connect to server socket err = No such file or directory
Cannot connect to server request channel
jack server is not running or cannot be started
JackShmReadWritePtr::~JackShmReadWritePtr - Init not done for 4294967295, skipping unlock
JackShmReadWritePtr::~JackShmReadWritePtr - Init not done for 4294967295, skipping unlock
ALSA lib pcm_dsnoop.c:606:(snd_pcm_dsnoop_open) unable to open slave
ALSA lib pcm_dmix.c:1029:(snd_pcm_dmix_open) unable to open slave
ALSA lib pcm.c:2266:(snd_pcm_open_noupdate) Unknown PCM cards.pcm.rear
ALSA lib pcm.c:2266:(snd_pcm_open_noupdate) Unknown PCM cards.pcm.center_lfe
ALSA lib pcm.c:2266:(snd_pcm_open_noupdate) Unknown PCM cards.pcm.side
ALSA lib pcm_dmix.c:1029:(snd_pcm_dmix_open) unable to open slave
Cannot connect to server socket err = No such file or directory
Cannot connect to server request channel
jack server is not running or cannot be started
JackShmReadWritePtr::~JackShmReadWritePtr - Init not done for 4294967295, skipping unlock
JackShmReadWritePtr::~JackShmReadWritePtr - Init not done for 4294967295, skipping unlock
ffmpeg version 2.8.11-0ubuntu0.16.04.1 Copyright (c) 2000-2017 the FFmpeg developers
  built with gcc 5.4.0 (Ubuntu 5.4.0-6ubuntu1~16.04.4) 20160609
  configuration: --prefix=/usr --extra-version=0ubuntu0.16.04.1 --build-suffix=-ffmpeg --toolchain=hardened --libdir=/usr/lib/x86_64-linux-gnu --incdir=/usr/include/x86_64-linux-gnu --cc=cc --cxx=g++ --enable-gpl --enable-shared --disable-stripping --disable-decoder=libopenjpeg --disable-decoder=libschroedinger --enable-avresample --enable-avisynth --enable-gnutls --enable-ladspa --enable-libass --enable-libbluray --enable-libbs2b --enable-libcaca --enable-libcdio --enable-libflite --enable-libfontconfig --enable-libfreetype --enable-libfribidi --enable-libgme --enable-libgsm --enable-libmodplug --enable-libmp3lame --enable-libopenjpeg --enable-libopus --enable-libpulse --enable-librtmp --enable-libschroedinger --enable-libshine --enable-libsnappy --enable-libsoxr --enable-libspeex --enable-libssh --enable-libtheora --enable-libtwolame --enable-libvorbis --enable-libvpx --enable-libwavpack --enable-libwebp --enable-libx265 --enable-libxvid --enable-libzvbi --enable-openal --enable-opengl --enable-x11grab --enable-libdc1394 --enable-libiec61883 --enable-libzmq --enable-frei0r --enable-libx264 --enable-libopencv
  libavutil      54. 31.100 / 54. 31.100
  libavcodec     56. 60.100 / 56. 60.100
  libavformat    56. 40.101 / 56. 40.101
  libavdevice    56.  4.100 / 56.  4.100
  libavfilter     5. 40.101 /  5. 40.101
  libavresample   2.  1.  0 /  2.  1.  0
  libswscale      3.  1.101 /  3.  1.101
  libswresample   1.  2.101 /  1.  2.101
  libpostproc    53.  3.100 / 53.  3.100
[mp3 @ 0x1f694c0] Skipping 0 bytes of junk at 0.
[mp3 @ 0x1f694c0] Estimating duration from bitrate, this may be inaccurate
Input #0, mp3, from 'syn_auido.wav':
  Duration: 00:00:02.52, start: 0.000000, bitrate: 16 kb/s
    Stream #0:0: Audio: mp3, 16000 Hz, mono, s16p, 16 kb/s
Output #0, wav, to 'temp.wav':
  Metadata:
    ISFT            : Lavf56.40.101
    Stream #0:0: Audio: pcm_s16le ([1][0][0][0] / 0x0001), 16000 Hz, mono, s16, 256 kb/s
    Metadata:
      encoder         : Lavc56.60.100 pcm_s16le
Stream mapping:
  Stream #0:0 -> #0:0 (mp3 (native) -> pcm_s16le (native))
Press [q] to stop, [?] for help
size=      79kB time=00:00:02.52 bitrate= 256.2kbits/s    
video:0kB audio:79kB subtitle:0kB other streams:0kB global headers:0kB muxing overhead: 0.096726%
ALSA lib pcm_dsnoop.c:606:(snd_pcm_dsnoop_open) unable to open slave
ALSA lib pcm.c:2266:(snd_pcm_open_noupdate) Unknown PCM cards.pcm.rear
ALSA lib pcm.c:2266:(snd_pcm_open_noupdate) Unknown PCM cards.pcm.center_lfe
ALSA lib pcm.c:2266:(snd_pcm_open_noupdate) Unknown PCM cards.pcm.side
ALSA lib pcm_route.c:867:(find_matching_chmap) Found no matching channel map
ALSA lib pcm_route.c:867:(find_matching_chmap) Found no matching channel map
ALSA lib pcm_route.c:867:(find_matching_chmap) Found no matching channel map
Cannot connect to server socket err = No such file or directory
Cannot connect to server request channel
jack server is not running or cannot be started
JackShmReadWritePtr::~JackShmReadWritePtr - Init not done for 4294967295, skipping unlock
JackShmReadWritePtr::~JackShmReadWritePtr - Init not done for 4294967295, skipping unlock
ALSA lib pcm_dsnoop.c:606:(snd_pcm_dsnoop_open) unable to open slave
ALSA lib pcm_dmix.c:1029:(snd_pcm_dmix_open) unable to open slave
ALSA lib pcm.c:2266:(snd_pcm_open_noupdate) Unknown PCM cards.pcm.rear
ALSA lib pcm.c:2266:(snd_pcm_open_noupdate) Unknown PCM cards.pcm.center_lfe
ALSA lib pcm.c:2266:(snd_pcm_open_noupdate) Unknown PCM cards.pcm.side
ALSA lib pcm_dmix.c:1029:(snd_pcm_dmix_open) unable to open slave
Cannot connect to server socket err = No such file or directory
Cannot connect to server request channel
jack server is not running or cannot be started
JackShmReadWritePtr::~JackShmReadWritePtr - Init not done for 4294967295, skipping unlock
JackShmReadWritePtr::~JackShmReadWritePtr - Init not done for 4294967295, skipping unlock
ffmpeg version 2.8.11-0ubuntu0.16.04.1 Copyright (c) 2000-2017 the FFmpeg developers
  built with gcc 5.4.0 (Ubuntu 5.4.0-6ubuntu1~16.04.4) 20160609
  configuration: --prefix=/usr --extra-version=0ubuntu0.16.04.1 --build-suffix=-ffmpeg --toolchain=hardened --libdir=/usr/lib/x86_64-linux-gnu --incdir=/usr/include/x86_64-linux-gnu --cc=cc --cxx=g++ --enable-gpl --enable-shared --disable-stripping --disable-decoder=libopenjpeg --disable-decoder=libschroedinger --enable-avresample --enable-avisynth --enable-gnutls --enable-ladspa --enable-libass --enable-libbluray --enable-libbs2b --enable-libcaca --enable-libcdio --enable-libflite --enable-libfontconfig --enable-libfreetype --enable-libfribidi --enable-libgme --enable-libgsm --enable-libmodplug --enable-libmp3lame --enable-libopenjpeg --enable-libopus --enable-libpulse --enable-librtmp --enable-libschroedinger --enable-libshine --enable-libsnappy --enable-libsoxr --enable-libspeex --enable-libssh --enable-libtheora --enable-libtwolame --enable-libvorbis --enable-libvpx --enable-libwavpack --enable-libwebp --enable-libx265 --enable-libxvid --enable-libzvbi --enable-openal --enable-opengl --enable-x11grab --enable-libdc1394 --enable-libiec61883 --enable-libzmq --enable-frei0r --enable-libx264 --enable-libopencv
  libavutil      54. 31.100 / 54. 31.100
  libavcodec     56. 60.100 / 56. 60.100
  libavformat    56. 40.101 / 56. 40.101
  libavdevice    56.  4.100 / 56.  4.100
  libavfilter     5. 40.101 /  5. 40.101
  libavresample   2.  1.  0 /  2.  1.  0
  libswscale      3.  1.101 /  3.  1.101
  libswresample   1.  2.101 /  1.  2.101
  libpostproc    53.  3.100 / 53.  3.100
[mp3 @ 0x156b4c0] Skipping 0 bytes of junk at 0.
[mp3 @ 0x156b4c0] Estimating duration from bitrate, this may be inaccurate
Input #0, mp3, from 'syn_auido.wav':
  Duration: 00:00:03.74, start: 0.000000, bitrate: 16 kb/s
    Stream #0:0: Audio: mp3, 16000 Hz, mono, s16p, 16 kb/s
Output #0, wav, to 'temp.wav':
  Metadata:
    ISFT            : Lavf56.40.101
    Stream #0:0: Audio: pcm_s16le ([1][0][0][0] / 0x0001), 16000 Hz, mono, s16, 256 kb/s
    Metadata:
      encoder         : Lavc56.60.100 pcm_s16le
Stream mapping:
  Stream #0:0 -> #0:0 (mp3 (native) -> pcm_s16le (native))
Press [q] to stop, [?] for help
size=     117kB time=00:00:03.74 bitrate= 256.2kbits/s    
video:0kB audio:117kB subtitle:0kB other streams:0kB global headers:0kB muxing overhead: 0.065104%
ALSA lib pcm_dsnoop.c:606:(snd_pcm_dsnoop_open) unable to open slave
ALSA lib pcm.c:2266:(snd_pcm_open_noupdate) Unknown PCM cards.pcm.rear
ALSA lib pcm.c:2266:(snd_pcm_open_noupdate) Unknown PCM cards.pcm.center_lfe
ALSA lib pcm.c:2266:(snd_pcm_open_noupdate) Unknown PCM cards.pcm.side
ALSA lib pcm_route.c:867:(find_matching_chmap) Found no matching channel map
ALSA lib pcm_route.c:867:(find_matching_chmap) Found no matching channel map
ALSA lib pcm_route.c:867:(find_matching_chmap) Found no matching channel map
Cannot connect to server socket err = No such file or directory
Cannot connect to server request channel
jack server is not running or cannot be started
JackShmReadWritePtr::~JackShmReadWritePtr - Init not done for 4294967295, skipping unlock
JackShmReadWritePtr::~JackShmReadWritePtr - Init not done for 4294967295, skipping unlock
ALSA lib pcm_dmix.c:1029:(snd_pcm_dmix_open) unable to open slave
ALSA lib pcm.c:2266:(snd_pcm_open_noupdate) Unknown PCM cards.pcm.rear
ALSA lib pcm.c:2266:(snd_pcm_open_noupdate) Unknown PCM cards.pcm.center_lfe
ALSA lib pcm.c:2266:(snd_pcm_open_noupdate) Unknown PCM cards.pcm.side
ALSA lib pcm_route.c:867:(find_matching_chmap) Found no matching channel map
ALSA lib pcm_dmix.c:1029:(snd_pcm_dmix_open) unable to open slave
Cannot connect to server socket err = No such file or directory
Cannot connect to server request channel
jack server is not running or cannot be started
JackShmReadWritePtr::~JackShmReadWritePtr - Init not done for 4294967295, skipping unlock
JackShmReadWritePtr::~JackShmReadWritePtr - Init not done for 4294967295, skipping unlock
/usr/lib/python3/dist-packages/urllib3/connectionpool.py:794: InsecureRequestWarning: Unverified HTTPS request is being made. Adding certificate verification is strongly advised. See: https://urllib3.readthedocs.org/en/latest/security.html
  InsecureRequestWarning)
Traceback (most recent call last):
  File "interactive.py", line 14, in <module>
    content = robot_rec.recognition()    #返回语音识别的内容
  File "/home/david/project/audio/audio_interactive/voice/voice_recognition.py", line 86, in recognition
    file_name = self.record()   #调用录音函数
  File "/home/david/project/audio/audio_interactive/voice/voice_recognition.py", line 46, in record
    data = stream.read(CHUNK)
  File "/usr/local/lib/python3.5/dist-packages/pyaudio.py", line 608, in read
    return pa.read_stream(self._stream, num_frames, exception_on_overflow)
KeyboardInterrupt
